<svg width="36" height="36" viewBox="0 0 36 36" fill="none" xmlns="http://www.w3.org/2000/svg">
<path d="M30 5.5H6C5.46957 5.5 4.96086 5.71071 4.58579 6.08579C4.21071 6.46086 4 6.96957 4 7.5V28.5C4 29.0304 4.21071 29.5391 4.58579 29.9142C4.96086 30.2893 5.46957 30.5 6 30.5H30C30.5304 30.5 31.0391 30.2893 31.4142 29.9142C31.7893 29.5391 32 29.0304 32 28.5V7.5C32 6.96957 31.7893 6.46086 31.4142 6.08579C31.0391 5.71071 30.5304 5.5 30 5.5ZM3.17157 4.67157C3.92172 3.92143 4.93913 3.5 6 3.5H30C31.0609 3.5 32.0783 3.92143 32.8284 4.67157C33.5786 5.42172 34 6.43913 34 7.5V28.5C34 29.5609 33.5786 30.5783 32.8284 31.3284C32.0783 32.0786 31.0609 32.5 30 32.5H6C4.93913 32.5 3.92172 32.0786 3.17157 31.3284C2.42143 30.5783 2 29.5609 2 28.5V7.5C2 6.43913 2.42143 5.42172 3.17157 4.67157ZM9.5 11H11.5V13H9.5V11ZM15.7929 11.2929C15.9804 11.1054 16.2348 11 16.5 11H25.5C25.7652 11 26.0196 11.1054 26.2071 11.2929C26.3946 11.4804 26.5 11.7348 26.5 12C26.5 12.2652 26.3946 12.5196 26.2071 12.7071C26.0196 12.8946 25.7652 13 25.5 13H16.5C16.2348 13 15.9804 12.8946 15.7929 12.7071C15.6054 12.5196 15.5 12.2652 15.5 12C15.5 11.7348 15.6054 11.4804 15.7929 11.2929ZM9.5 19V17H11.5V19H9.5ZM15.5 18C15.5 17.7348 15.6054 17.4804 15.7929 17.2929C15.9804 17.1054 16.2348 17 16.5 17H25.5C25.7652 17 26.0196 17.1054 26.2071 17.2929C26.3946 17.4804 26.5 17.7348 26.5 18C26.5 18.2652 26.3946 18.5196 26.2071 18.7071C26.0196 18.8946 25.7652 19 25.5 19H16.5C16.2348 19 15.9804 18.8946 15.7929 18.7071C15.6054 18.5196 15.5 18.2652 15.5 18ZM9.5 25V23H11.5V25H9.5ZM15.5 24C15.5 23.7348 15.6054 23.4804 15.7929 23.2929C15.9804 23.1054 16.2348 23 16.5 23H25.5C25.7652 23 26.0196 23.1054 26.2071 23.2929C26.3946 23.4804 26.5 23.7348 26.5 24C26.5 24.2652 26.3946 24.5196 26.2071 24.7071C26.0196 24.8946 25.7652 25 25.5 25H16.5C16.2348 25 15.9804 24.8946 15.7929 24.7071C15.6054 24.5196 15.5 24.2652 15.5 24Z" fill="black" stroke="black"/>
</svg>
