<svg width="138" height="66" viewBox="0 0 138 66" fill="none" xmlns="http://www.w3.org/2000/svg">
<path d="M5.056 60.048C4.24533 60.048 3.92533 59.344 4.096 57.936L5.056 52.496C5.184 51.9413 5.33333 51.2587 5.504 50.448C5.71733 49.5947 5.93067 48.6133 6.144 47.504C6.22933 46.5227 6.37867 45.264 6.592 43.728C6.80533 42.1493 7.06133 40.2507 7.36 38.032L8.384 31.952C8.59733 31.2267 8.85333 30.288 9.152 29.136C9.45067 27.9413 9.792 26.5547 10.176 24.976C10.432 23.696 10.9013 23.248 11.584 23.632L11.264 21.2C11.0507 20.432 10.88 19.728 10.752 19.088C10.624 18.4053 10.5173 17.7867 10.432 17.232C10.3893 17.104 10.368 16.8693 10.368 16.528C10.368 15.504 10.7093 14.992 11.392 14.992C11.7333 14.992 11.9893 15.2693 12.16 15.824C12.3307 16.3787 12.5013 17.0187 12.672 17.744C12.8427 18.4267 13.0133 19.1947 13.184 20.048C13.44 21.2427 13.632 22.672 13.76 24.336C13.8453 25.3173 13.9093 26.128 13.952 26.768C14.0373 27.408 14.1013 27.8987 14.144 28.24C14.3573 29.7333 14.5493 30.992 14.72 32.016C14.8907 32.9973 15.0613 33.7653 15.232 34.32C15.7867 36.368 16.768 38.16 18.176 39.696L19.136 40.912C21.184 38.608 22.72 36.816 23.744 35.536C24.2133 34.9813 24.768 34.2773 25.408 33.424C26.0907 32.528 26.9013 31.4613 27.84 30.224C28.352 29.4133 29.3973 27.3867 30.976 24.144L31.04 24.08C31.1253 24.08 31.3173 23.696 31.616 22.928C31.9573 21.9467 32.2987 21.2853 32.64 20.944L32.448 20.88C32.9173 20.5387 33.3013 20.368 33.6 20.368C34.112 20.368 34.688 21.1573 35.328 22.736C35.6267 23.376 35.776 24.144 35.776 25.04C35.776 25.3387 35.7333 25.7013 35.648 26.128C35.6053 26.5547 35.5413 27.024 35.456 27.536C35.3707 28.048 35.2853 28.4747 35.2 28.816C35.1573 29.1573 35.136 29.4133 35.136 29.584V29.648C35.136 30.2453 35.0933 31.2267 35.008 32.592C34.9227 33.9573 34.7947 35.7067 34.624 37.84C34.5387 38.224 34.432 39.1627 34.304 40.656C34.176 42.1493 34.048 44.1973 33.92 46.8C33.8773 47.6107 33.8347 48.3573 33.792 49.04C33.792 49.68 33.792 50.2773 33.792 50.832C33.792 51.3867 33.792 51.856 33.792 52.24C33.8347 52.624 33.8773 52.944 33.92 53.2L34.368 55.888C34.4107 56.016 34.432 56.1867 34.432 56.4C34.432 57.2533 33.9627 57.68 33.024 57.68C32.6827 57.68 32.4693 57.552 32.384 57.296C32.2987 56.9547 32.2133 56.528 32.128 56.016C32.0427 55.504 31.9573 54.8853 31.872 54.16C31.744 51.5147 31.68 49.488 31.68 48.08C31.68 47.3973 31.744 46.1813 31.872 44.432C32 42.6827 32.2347 40.4 32.576 37.584C32.6187 36.816 32.6613 35.792 32.704 34.512C32.7893 33.1893 32.896 31.6107 33.024 29.776L33.536 24.464C33.4933 24.3787 33.4507 24.3147 33.408 24.272C33.3653 24.2293 33.3227 24.1867 33.28 24.144C33.1947 24.144 33.0027 24.7413 32.704 25.936H32.64C32.0853 27.0027 31.5093 28.0693 30.912 29.136C30.3573 30.16 29.7813 31.184 29.184 32.208C28.2027 33.872 26.7733 35.7707 24.896 37.904L21.952 41.552C20.5867 43.1733 19.648 43.984 19.136 43.984C18.624 43.984 18.1547 43.7707 17.728 43.344L16.896 42.512L16.64 42.192C15.3173 40.5707 14.272 38.7573 13.504 36.752C13.3333 36.24 13.1627 35.6853 12.992 35.088C12.864 34.448 12.7573 33.7867 12.672 33.104C12.5013 31.824 12.3307 30.544 12.16 29.264C11.9893 27.9413 11.904 27.1733 11.904 26.96C11.7333 27.5147 11.5413 28.2613 11.328 29.2C11.1573 30.1387 10.9227 31.248 10.624 32.528C10.496 33.296 10.304 34.2773 10.048 35.472C9.92 36.0267 9.81333 36.56 9.728 37.072C9.64267 37.5413 9.55733 37.9467 9.472 38.288H9.344C9.25867 39.2693 9.10933 40.5707 8.896 42.192C8.72533 43.8133 8.49067 45.7547 8.192 48.016C8.064 48.5707 7.89333 49.2747 7.68 50.128C7.50933 50.9813 7.31733 52.0053 7.104 53.2C6.93333 54.2667 6.61333 56.0587 6.144 58.576H6.08C5.952 59.5573 5.61067 60.048 5.056 60.048ZM45.9375 59.344C44.0602 59.344 42.5242 58.768 41.3295 57.616C40.1775 56.464 39.6015 54.9067 39.6015 52.944C39.6015 52.5173 39.6228 52.0907 39.6655 51.664C39.7508 51.2373 39.8362 50.8107 39.9215 50.384C40.3908 48.5493 41.6922 46.5867 43.8255 44.496C46.2148 42.2347 48.2842 41.104 50.0335 41.104C51.4842 41.104 52.1668 41.9147 52.0815 43.536C52.0388 45.6267 50.8868 47.6747 48.6255 49.68C47.6442 50.4907 46.6202 51.2373 45.5535 51.92C44.5295 52.6027 43.4415 52.944 42.2895 52.944H42.2255C42.3535 55.7173 43.7828 57.104 46.5135 57.104C47.4095 57.104 48.4122 56.8907 49.5215 56.464C49.6068 56.4213 49.7348 56.4 49.9055 56.4C50.4602 56.4 50.7375 56.6773 50.7375 57.232C50.7375 57.616 50.5455 57.9147 50.1615 58.128C48.9668 58.9387 47.5588 59.344 45.9375 59.344ZM43.9535 49.936C45.2762 49.6373 46.4068 49.0827 47.3455 48.272C49.0095 46.864 49.8415 45.52 49.8415 44.24V44.112C49.8415 43.8133 49.7348 43.5787 49.5215 43.408C49.3082 43.2373 49.1588 43.1947 49.0735 43.28C47.7508 43.28 46.3428 44.24 44.8495 46.16C44.6362 46.4587 44.3802 46.864 44.0815 47.376C43.7828 47.8453 43.4628 48.4213 43.1215 49.104C43.0788 49.1893 43.0575 49.2747 43.0575 49.36C43.0575 49.744 43.3562 49.936 43.9535 49.936ZM54.984 58.256C54.1733 58.256 53.768 57.8507 53.768 57.04C53.8107 55.248 54.0027 53.0933 54.344 50.576C54.5573 48.9547 54.7493 47.5893 54.92 46.48C55.0907 45.3707 55.1973 44.5387 55.24 43.984C55.3253 43.3867 55.624 43.088 56.136 43.088C56.6053 43.088 56.84 43.3653 56.84 43.92C56.84 45.456 56.84 46.7147 56.84 47.696C56.84 48.6347 56.8187 49.296 56.776 49.68V49.808C56.776 50.2347 56.9467 50.448 57.288 50.448C57.4587 50.448 57.6293 50.32 57.8 50.064C59.336 47.6747 61 46.48 62.792 46.48C63.6027 46.48 64.2 47.0347 64.584 48.144C64.6693 48.3573 64.776 48.7627 64.904 49.36C65.0747 49.9147 65.2453 50.6613 65.416 51.6C65.544 52.1547 65.8213 52.432 66.248 52.432C66.504 52.432 66.8453 52.2827 67.272 51.984C67.4853 51.856 67.8053 51.6213 68.232 51.28C68.7013 50.9387 69.2773 50.4907 69.96 49.936C72.8613 47.6747 74.6107 46.544 75.208 46.544C76.232 46.544 77.0213 48.144 77.576 51.344C78.088 54.0747 78.6427 55.44 79.24 55.44C79.4107 55.44 79.7733 55.504 80.328 55.632C80.84 55.6747 81.16 55.6747 81.288 55.632C81.3733 55.5893 81.4587 55.568 81.544 55.568C81.6293 55.5253 81.7147 55.504 81.8 55.504C82.3547 55.504 82.632 55.76 82.632 56.272C82.632 56.8693 82.1627 57.36 81.224 57.744C80.5413 58.0427 79.688 58.128 78.664 58C77.6827 58 76.872 57.3387 76.232 56.016C75.976 55.4187 75.592 54.1813 75.08 52.304C74.7387 50.9387 74.376 50.256 73.992 50.256C73.48 50.256 72.7333 50.5333 71.752 51.088C70.7707 51.6427 69.7893 52.2827 68.808 53.008C67.8267 53.7333 67.0373 54.416 66.44 55.056C66.2693 55.2693 65.9493 55.376 65.48 55.376C64.5413 55.376 64.008 55.1627 63.88 54.736C63.0693 51.6213 62.3867 50.064 61.832 50.064C60.424 50.064 59.1653 50.96 58.056 52.752C57.7573 53.2213 57.4587 53.84 57.16 54.608C56.8613 55.376 56.5413 56.3147 56.2 57.424C56.0293 57.8507 55.88 58.0213 55.752 57.936C55.5387 58.1493 55.2827 58.256 54.984 58.256ZM87.8865 58.96C86.5212 58.96 85.3692 58.4267 84.4305 57.36C83.5772 56.3787 83.1505 55.2693 83.1505 54.032C83.1505 51.728 84.1958 49.2747 86.2865 46.672C87.1398 45.5627 88.0572 44.5813 89.0385 43.728C90.0198 42.8747 91.0438 42.1067 92.1105 41.424C92.3238 41.296 92.6225 41.232 93.0065 41.232C94.2438 41.232 94.8625 41.5307 94.8625 42.128C94.8625 42.2987 94.7345 42.4907 94.4785 42.704V42.768C95.1185 43.664 95.7585 44.6027 96.3985 45.584C97.0385 46.5653 97.3585 47.7173 97.3585 49.04C97.3585 50.1493 97.0598 51.28 96.4625 52.432C95.9078 53.584 95.1398 54.672 94.1585 55.696C93.2198 56.6773 92.1958 57.4667 91.0865 58.064C89.9772 58.6613 88.9105 58.96 87.8865 58.96ZM87.9505 56.976C89.0172 56.9333 90.1478 56.5067 91.3425 55.696C92.5372 54.8427 93.5612 53.8187 94.4145 52.624C95.3105 51.4293 95.7798 50.2987 95.8225 49.232C95.9078 47.568 95.0545 45.6907 93.2625 43.6C91.4278 44.9227 89.8065 46.48 88.3985 48.272C86.7345 50.448 85.9025 52.4107 85.9025 54.16C85.9025 56.0373 86.5852 56.976 87.9505 56.976ZM103.552 36.816C102.912 36.816 102.613 36.432 102.656 35.664L103.296 33.232C103.424 32.7627 103.722 32.528 104.192 32.528C105.173 32.528 105.578 32.9333 105.408 33.744C105.365 34.3413 105.216 35.0027 104.96 35.728C104.704 36.4533 104.234 36.816 103.552 36.816ZM101.312 56.976C100.928 56.976 100.672 56.8053 100.544 56.464C100.373 55.9947 100.266 55.4187 100.224 54.736C100.181 54.0533 100.181 53.2853 100.224 52.432C100.309 51.4507 100.544 50.2133 100.928 48.72C101.354 47.2267 101.93 45.4987 102.656 43.536C102.826 43.1093 103.125 42.896 103.552 42.896C104.362 42.896 104.64 43.2587 104.384 43.984C104.213 44.5387 104.064 45.0933 103.936 45.648C103.808 46.2027 103.68 46.7573 103.552 47.312C103.338 48.2933 103.168 49.168 103.04 49.936C102.912 50.704 102.848 51.3867 102.848 51.984C102.848 54.0747 102.869 55.1627 102.911 55.248C103.04 55.6747 102.912 56.08 102.528 56.464C102.144 56.8053 101.738 56.976 101.312 56.976ZM110.584 57.552C110.157 57.552 109.88 57.0613 109.752 56.08C109.624 55.056 109.56 54.0107 109.56 52.944C109.56 52.2613 109.56 51.6427 109.56 51.088C109.603 50.4907 109.624 50.0427 109.624 49.744C109.624 49.3173 109.645 48.784 109.688 48.144C109.731 47.4613 109.795 46.6933 109.88 45.84C110.008 44.0907 110.072 42.768 110.072 41.872C110.072 41.4453 110.051 41.04 110.008 40.656C109.965 40.2293 109.944 39.8453 109.944 39.504V39.248C109.944 38.736 110.221 38.48 110.776 38.48C111.203 38.48 111.437 38.736 111.48 39.248C111.565 39.7173 111.629 40.6773 111.672 42.128C111.715 43.5787 111.757 45.4987 111.8 47.888C111.8 48.528 111.928 48.848 112.184 48.848C112.483 48.848 112.931 48.3573 113.528 47.376C114.765 45.328 116.109 43.6 117.56 42.192C118.627 41.2107 119.608 40.72 120.504 40.72C121.571 40.72 122.488 41.1893 123.256 42.128C123.512 42.4267 123.64 42.7467 123.64 43.088C123.64 43.6427 123.405 43.92 122.936 43.92C122.765 43.92 122.573 43.856 122.36 43.728L122.296 43.792C121.485 43.1947 120.952 42.896 120.696 42.896C119.672 42.896 118.712 43.4507 117.816 44.56C114.701 48.4 112.781 52.2827 112.056 56.208C111.885 57.104 111.395 57.552 110.584 57.552ZM130.875 59.344C128.998 59.344 127.462 58.768 126.267 57.616C125.115 56.464 124.539 54.9067 124.539 52.944C124.539 52.5173 124.56 52.0907 124.603 51.664C124.688 51.2373 124.774 50.8107 124.859 50.384C125.328 48.5493 126.63 46.5867 128.763 44.496C131.152 42.2347 133.222 41.104 134.971 41.104C136.422 41.104 137.104 41.9147 137.019 43.536C136.976 45.6267 135.824 47.6747 133.563 49.68C132.582 50.4907 131.558 51.2373 130.491 51.92C129.467 52.6027 128.379 52.944 127.227 52.944H127.163C127.291 55.7173 128.72 57.104 131.451 57.104C132.347 57.104 133.35 56.8907 134.459 56.464C134.544 56.4213 134.672 56.4 134.843 56.4C135.398 56.4 135.675 56.6773 135.675 57.232C135.675 57.616 135.483 57.9147 135.099 58.128C133.904 58.9387 132.496 59.344 130.875 59.344ZM128.891 49.936C130.214 49.6373 131.344 49.0827 132.283 48.272C133.947 46.864 134.779 45.52 134.779 44.24V44.112C134.779 43.8133 134.672 43.5787 134.459 43.408C134.246 43.2373 134.096 43.1947 134.011 43.28C132.688 43.28 131.28 44.24 129.787 46.16C129.574 46.4587 129.318 46.864 129.019 47.376C128.72 47.8453 128.4 48.4213 128.059 49.104C128.016 49.1893 127.995 49.2747 127.995 49.36C127.995 49.744 128.294 49.936 128.891 49.936Z" fill="black"/>
</svg>
