<svg width="36" height="36" viewBox="0 0 36 36" fill="none" xmlns="http://www.w3.org/2000/svg">
<path d="M18 23.625C19.2426 23.625 20.25 22.6176 20.25 21.375C20.25 20.1324 19.2426 19.125 18 19.125C16.7574 19.125 15.75 20.1324 15.75 21.375C15.75 22.6176 16.7574 23.625 18 23.625Z" fill="white"/>
<path d="M26.7491 20.7889C26.054 19.018 24.8545 17.49 23.2993 16.3944C21.7441 15.2987 19.9015 14.6835 18 14.625C16.0985 14.6835 14.2559 15.2987 12.7007 16.3944C11.1455 17.49 9.94599 19.018 9.25087 20.7889L9 21.375L9.25087 21.9622C9.94616 23.7329 11.1457 25.2606 12.7009 26.3561C14.2561 27.4516 16.0986 28.0666 18 28.125C19.9014 28.0666 21.7439 27.4516 23.2991 26.3561C24.8543 25.2606 26.0538 23.7329 26.7491 21.9622L27 21.375L26.7491 20.7889ZM18 25.875C17.11 25.875 16.24 25.6111 15.4999 25.1166C14.7599 24.6221 14.1831 23.9193 13.8425 23.0971C13.5019 22.2748 13.4128 21.37 13.5865 20.4971C13.7601 19.6242 14.1887 18.8224 14.818 18.193C15.4474 17.5637 16.2492 17.1351 17.1221 16.9615C17.995 16.7878 18.8998 16.8769 19.7221 17.2175C20.5443 17.5581 21.2471 18.1349 21.7416 18.8749C22.2361 19.615 22.5 20.485 22.5 21.375C22.4985 22.568 22.0239 23.7117 21.1803 24.5553C20.3367 25.3989 19.193 25.8735 18 25.875Z" fill="white"/>
<path d="M30.375 3.375H5.625C5.02826 3.375 4.45597 3.61205 4.03401 4.03401C3.61205 4.45597 3.375 5.02826 3.375 5.625V30.375C3.375 30.9717 3.61205 31.544 4.03401 31.966C4.45597 32.3879 5.02826 32.625 5.625 32.625H30.375C30.9717 32.625 31.544 32.3879 31.966 31.966C32.3879 31.544 32.625 30.9717 32.625 30.375V5.625C32.625 5.02826 32.3879 4.45597 31.966 4.03401C31.544 3.61205 30.9717 3.375 30.375 3.375ZM5.625 5.625H30.375V10.125H5.625V5.625ZM5.625 30.375V12.375H30.375V30.375H5.625Z" fill="white"/>
</svg>
