<svg width="15" height="18" viewBox="0 0 15 18" fill="none" xmlns="http://www.w3.org/2000/svg">
<rect width="15" height="17" transform="matrix(-1 0 0 -1 15 17.5)" fill="white"/>
<path d="M12.3149 8.99998L7.00736 15.1816C6.96366 15.2314 6.92912 15.2906 6.90572 15.3556C6.88233 15.4207 6.87054 15.4903 6.87106 15.5606C6.87157 15.6308 6.88437 15.7002 6.90872 15.7648C6.93307 15.8294 6.96848 15.8879 7.0129 15.9369C7.05732 15.9859 7.10987 16.0244 7.16751 16.0502C7.22516 16.076 7.28675 16.0886 7.34872 16.0873C7.41068 16.086 7.4718 16.0707 7.52854 16.0424C7.58527 16.0141 7.63649 15.9734 7.67924 15.9225L13.3042 9.37044C13.3894 9.27127 13.437 9.13836 13.437 8.99998C13.437 8.86161 13.3894 8.7287 13.3042 8.62953L7.67924 2.07744C7.63649 2.02657 7.58527 1.98582 7.52854 1.95754C7.4718 1.92925 7.41068 1.914 7.34872 1.91266C7.28675 1.91133 7.22516 1.92393 7.16751 1.94975C7.10987 1.97556 7.05732 2.01408 7.0129 2.06306C6.96848 2.11205 6.93307 2.17054 6.90872 2.23513C6.88437 2.29973 6.87157 2.36916 6.87106 2.4394C6.87054 2.50964 6.88233 2.5793 6.90572 2.64435C6.92912 2.7094 6.96366 2.76854 7.00736 2.81836L12.3149 8.99998Z" fill="#757575"/>
</svg>
