<svg width="31" height="30" viewBox="0 0 31 30" fill="none" xmlns="http://www.w3.org/2000/svg">
<path fill-rule="evenodd" clip-rule="evenodd" d="M19.25 1.5625H14.18C11.8825 1.5625 10.0625 1.5625 8.63875 1.75375C7.17375 1.95125 5.9875 2.36625 5.05125 3.30125C4.11625 4.2375 3.70125 5.42375 3.50375 6.88875C3.3125 8.31375 3.3125 10.1325 3.3125 12.43V20C3.31253 21.1168 3.71117 22.1969 4.43667 23.0459C5.16217 23.8949 6.16689 24.4571 7.27 24.6313C7.44125 25.5863 7.7725 26.4013 8.435 27.065C9.1875 27.8175 10.135 28.14 11.26 28.2925C12.3438 28.4375 13.7225 28.4375 15.4312 28.4375H19.3188C21.0275 28.4375 22.4062 28.4375 23.49 28.2925C24.615 28.14 25.5625 27.8175 26.315 27.065C27.0675 26.3125 27.39 25.365 27.5425 24.24C27.6875 23.1562 27.6875 21.7775 27.6875 20.0688V13.6812C27.6875 11.9725 27.6875 10.5938 27.5425 9.51C27.39 8.385 27.0675 7.4375 26.315 6.685C25.6513 6.0225 24.8363 5.69125 23.8813 5.52C23.7071 4.41689 23.1449 3.41217 22.2959 2.68667C21.4469 1.96117 20.3668 1.56253 19.25 1.5625ZM21.9125 5.33875C21.7224 4.78375 21.3636 4.30207 20.8861 3.96116C20.4087 3.62024 19.8366 3.43714 19.25 3.4375H14.25C11.8663 3.4375 10.1737 3.44 8.8875 3.6125C7.63125 3.78125 6.90625 4.09875 6.3775 4.6275C5.84875 5.15625 5.53125 5.88125 5.3625 7.13875C5.19 8.42375 5.1875 10.1163 5.1875 12.5V20C5.18714 20.5866 5.37024 21.1587 5.71116 21.6361C6.05207 22.1136 6.53375 22.4724 7.08875 22.6625C7.0625 21.9 7.0625 21.0375 7.0625 20.0688V13.6812C7.0625 11.9725 7.0625 10.5938 7.20875 9.51C7.35875 8.385 7.68375 7.4375 8.435 6.685C9.1875 5.9325 10.135 5.61 11.26 5.45875C12.3438 5.3125 13.7225 5.3125 15.4312 5.3125H19.3188C20.2875 5.3125 21.15 5.3125 21.9125 5.33875ZM9.76 8.0125C10.1062 7.66625 10.5912 7.44125 11.51 7.3175C12.4525 7.19125 13.705 7.18875 15.4987 7.18875H19.2487C21.0425 7.18875 22.2938 7.19125 23.2388 7.3175C24.1562 7.44125 24.6413 7.6675 24.9875 8.0125C25.3337 8.35875 25.5588 8.84375 25.6825 9.7625C25.8088 10.705 25.8113 11.9575 25.8113 13.7513V20.0012C25.8113 21.795 25.8088 23.0463 25.6825 23.9913C25.5588 24.9088 25.3325 25.3937 24.9875 25.74C24.6413 26.0862 24.1562 26.3113 23.2375 26.435C22.2938 26.5613 21.0425 26.5637 19.2487 26.5637H15.4987C13.705 26.5637 12.4525 26.5613 11.5087 26.435C10.5912 26.3113 10.1062 26.085 9.76 25.74C9.41375 25.3937 9.18875 24.9087 9.065 23.99C8.93875 23.0462 8.93625 21.795 8.93625 20.0012V13.7513C8.93625 11.9575 8.93875 10.705 9.065 9.76125C9.18875 8.84375 9.415 8.35875 9.76 8.0125Z" fill="#616161"/>
</svg>
