<svg width="1440" height="465" viewBox="0 0 1440 465" fill="none" xmlns="http://www.w3.org/2000/svg">
<path d="M-15 422.396C1.2637 422.396 508.5 424.532 551.295 422.396C561.123 420.271 571.687 420.927 581.732 420.927C603.048 420.927 624.363 420.927 645.678 420.927C662.811 420.927 679.943 420.927 697.075 420.927C718.029 420.927 739.59 424.532 760.42 424.532C781.112 424.532 801.804 424.532 822.497 424.532C829.975 424.532 838.48 425.314 845.659 423.263C848.156 422.55 859.278 423.36 860.744 421.528C862.682 419.105 866.751 418.04 866.751 414.319C866.751 410.273 865.494 410.193 864.348 407.043C861.624 399.551 853.497 401.703 846.927 401.703C843.352 401.703 839.782 402.428 836.247 402.972C833.683 403.366 828.775 403.444 826.502 404.707C819.397 408.654 808.097 402.447 800.67 405.575C793.402 408.635 784.846 406.255 777.308 407.978C769.39 409.788 760.718 408.912 752.61 408.912C726.388 408.912 699.931 410.114 673.579 410.114C653.828 410.114 634.528 407.711 614.707 407.711C599.198 407.711 583.69 407.711 568.182 407.711C557.075 407.711 546.702 407.242 536.944 402.905C530.16 399.89 551.18 396.897 553.765 396.897C565.179 396.897 576.593 396.897 588.007 396.897C596.417 396.897 604.828 396.897 613.238 396.897C621.634 396.897 629.46 399.114 637.668 399.3C656.652 399.732 676.665 403.815 696.274 401.637C700.913 401.121 717.077 399.498 715.298 391.491C713.056 381.404 701.093 379.769 693.204 377.14C683.08 373.765 669.21 376.472 658.361 376.472C651.886 376.472 645.411 376.472 638.937 376.472C631.379 376.472 618.247 378.997 611.369 375.871C607.325 374.033 602.336 376.511 598.286 374.67C593.031 372.281 585.96 374.432 580.331 372.267C577.881 371.325 574.286 370.998 571.72 370.531C568.123 369.877 564.391 368.062 560.974 368.062C555.902 368.062 549.628 365.812 547.423 360.853C538.711 341.249 584.407 345.234 594.949 345.234C617.935 345.234 641.079 346.435 664.301 346.435C678.074 346.435 691.846 346.435 705.619 346.435C710.241 346.435 718.803 345.316 722.506 342.23C726.789 338.661 731.39 338.954 729.715 331.416C728.432 325.64 728.321 318.541 723.775 313.995C717.968 308.189 699.62 311.592 692.536 311.592C683.414 311.592 674.291 311.592 665.169 311.592C645.115 311.592 624.421 310.321 604.561 313.06C590.077 315.058 575.161 315.196 560.506 315.196C554.273 315.196 544.47 316.648 539.681 311.859C536.383 308.561 533.677 301.901 533.94 297.174C534.321 290.309 544.528 288.764 550.093 288.764C579.708 288.764 609.322 288.764 638.937 288.764C655.023 288.764 671.11 288.764 687.196 288.764C697.524 288.764 706.59 286.268 716.566 285.159C721.235 284.64 730.646 282.898 733.12 277.95C734.058 276.073 733.968 270.248 733.12 268.338C731.535 264.773 728.884 266.431 725.644 265.668C721.604 264.718 717.354 262.49 713.228 262.331C709.17 262.175 704.052 262.372 700.279 260.863C696.583 259.384 692.277 259.928 688.131 259.928C677.05 259.928 665.97 259.928 654.89 259.928C625.787 259.928 596.684 259.928 567.582 259.928C563.329 259.928 551.962 261.776 551.962 267.738C551.962 276.644 569.654 275.799 575.391 276.682C588.191 278.651 602.816 276.749 615.775 276.749C633.098 276.749 649.981 275.002 666.971 274.279C673.575 273.998 681.924 274.085 688.398 272.544C692.814 271.492 697.511 269.296 701.48 272.544C707.574 277.529 704.926 283.582 704.551 289.965C703.831 302.211 675.285 305.267 667.038 305.585C659.291 305.882 651.324 306.786 643.275 306.786C633.189 306.786 623.417 304.75 613.505 304.383C604.943 304.066 596.309 304.383 587.74 304.383C580.376 304.383 572.71 301.566 565.179 303.449C556.98 305.498 554.365 311.063 554.365 318.801C554.365 327.194 564.891 329.614 571.72 329.614C608.655 329.614 646.345 332.017 683.525 332.017C690.577 332.017 696.462 332.067 702.682 335.622C705.381 337.164 711.827 338.56 712.895 342.297C718.662 362.482 700.381 363.256 684.66 363.256C669.737 363.256 654.57 364.04 639.671 363.256C634.384 362.978 625.18 362.022 620.447 359.918C612.386 356.336 598.322 358.45 590.009 358.45C572.393 358.45 557.815 361.708 544.153 372.334C542.291 373.782 539.948 377.07 539.948 379.476C539.948 384.158 547.497 384.512 551.295 384.816C563.822 385.818 577.466 382.565 589.742 385.15C599.379 387.178 611.851 387.285 621.648 387.285C630.164 387.285 638.406 388.359 646.88 388.487C661.396 388.707 676.278 393.293 690.934 393.293C700.944 393.293 715.571 396.002 725.243 393.026C732.937 390.658 740.457 391.392 748.338 390.623C755.196 389.954 762.298 388.487 769.164 388.487C777.364 388.487 785.565 387.046 793.728 386.351C802.392 385.614 814.067 388.45 822.297 385.817C829.788 383.42 838.5 384.588 846.326 382.747C851.24 381.59 855.493 380.744 860.477 379.142C870.077 376.056 880.041 375.602 889.379 372.334C894.724 370.463 901.047 369.752 906.601 369.196C914.468 368.41 921.949 365.716 929.696 364.524C940.785 362.818 951.953 357.879 962.336 354.912C967.85 353.337 973.161 348.838 979.157 348.838C991.631 348.838 1001.65 350.878 1013.33 354.845C1032.65 361.407 1025.71 383.113 1020.81 397.832C1018.31 405.342 1017.8 409.186 1021.48 416.121C1027.88 428.225 1048.18 424.496 1059.12 427.535C1066.41 429.559 1075.82 428.136 1083.42 428.136C1094.39 428.136 1107.98 428.015 1118.46 431.206C1124.71 433.107 1137.5 436.46 1141.89 441.953C1144.93 445.756 1152.58 447.838 1156.91 449.763C1159.44 450.885 1159.87 454.276 1158.71 456.304C1157.07 459.175 1144.68 459.164 1141.62 459.441C1117.44 461.64 1093.45 462.979 1069.13 462.979C1045.71 462.979 1023.13 459.375 999.849 459.375C981.926 459.375 949.922 463.384 943.913 440.685C940.484 427.729 937.639 413.97 937.639 400.502C937.639 368.952 937.639 337.402 937.639 305.852C937.639 299.694 936.438 292.454 936.438 285.693C936.438 280.014 937.81 272.328 935.503 267.137C934.157 264.109 937.081 252.766 938.574 249.782C941.527 243.876 943.798 238.028 946.984 232.294C949.704 227.397 956.592 224.778 961.268 222.148C968.657 217.992 975.793 213.865 982.094 208.264C984.69 205.957 987.496 206.444 989.036 202.524C990.494 198.812 991.096 194.918 992.64 191.443C995.156 185.783 991.521 181.78 998.915 178.494C1000.96 177.585 1006.37 177.134 1008.53 177.026C1014.36 176.734 1019.91 174.623 1025.75 174.623C1040.54 174.623 1055.34 174.623 1070.14 174.623C1073.32 174.623 1084.63 172.738 1086.62 175.223C1089.96 179.399 1099.35 179.838 1102.24 184.902C1103.47 187.045 1106.95 189.925 1108.85 191.443C1111.49 193.557 1112.56 197.972 1113.66 201.055C1115.82 207.107 1115.17 213.225 1117.26 219.078C1121.34 230.51 1119.06 246.035 1119.06 258.126C1119.06 264.663 1116.66 270.63 1116.66 277.35C1116.66 283.453 1116.43 289.608 1116.66 295.706C1117.03 305.251 1125.67 309.541 1130.41 316.131C1135.34 322.972 1140.58 329.271 1146.43 335.355C1152.79 341.965 1158.11 350.404 1162.58 358.45C1165.39 363.506 1166.64 368.83 1169.26 374.069C1174.8 385.143 1174.33 398.074 1174.33 410.381C1174.33 419.001 1175.57 423.87 1167.12 427.869C1158.1 432.145 1146.95 430.539 1137.15 430.539C1130.54 430.539 1120.12 416.99 1117.86 410.781C1115.43 404.084 1107.76 399.286 1103.44 393.894C1095.78 384.318 1072.21 382.098 1072.21 366.86C1072.21 347.652 1094.92 361.514 1104.65 362.054C1110.27 362.367 1113.26 354.074 1109.45 350.039C1105.25 345.59 1096.61 343.149 1090.76 341.095C1079.8 337.248 1068.27 335.099 1057.25 331.95C1051.04 330.175 1051.86 321.204 1058.46 321.204C1066.26 321.204 1074.9 323.07 1082.42 324.742C1084.71 325.252 1088.6 326.01 1090.83 326.01C1094.15 326.01 1095.74 328.872 1098.1 329.547C1101.03 330.383 1109.96 332.647 1111.85 335.021C1113.59 337.196 1117.9 335.715 1119 337.357C1119.01 337.377 1118.5 335.881 1118.13 335.355C1117.64 334.655 1119.06 332.416 1119.06 331.416C1119.06 324.997 1114.52 321.777 1109.99 318.067C1104.83 313.846 1099.68 309.487 1094.63 305.117C1093.59 304.213 1086.76 301.189 1086.76 300.111C1086.76 297.335 1091.53 296.318 1093.23 295.372C1095.9 293.889 1097.14 291.531 1098.37 288.764C1101.32 282.128 1101.27 272.446 1102.51 265.268C1104.4 254.351 1103.44 242.688 1103.44 231.626C1103.44 227.316 1103.23 225.588 1100.77 222.148C1098.31 218.695 1096.41 208.788 1091.43 208.264C1087.01 207.799 1082.74 206.12 1078.21 205.861C1068.43 205.302 1056.89 202.533 1047.31 199.921C1037.22 197.171 1023.74 194.889 1015.07 202.324C1009.2 207.35 1011.79 214.814 1003.12 216.741C993.846 218.802 996.512 233.934 996.512 241.305C996.512 249.647 995.31 257.628 995.31 265.935C995.31 278.571 995.622 290.997 996.512 303.449C996.835 307.971 999.844 311.773 1000.12 316.398C1000.24 318.533 1001.72 322.67 1002.79 324.808C1004.29 327.821 1005.79 332.784 1009.06 334.42C1015.53 337.656 1024.49 336.347 1030.42 340.161C1035.14 343.196 1043.76 343.506 1049.24 345.234C1057.12 347.714 1066.62 346.633 1074.07 350.039C1077.79 351.736 1082.52 352.442 1086.62 352.442C1095.08 352.442 1105.09 354.55 1113.32 356.047C1129.73 359.029 1145.12 355.476 1161.52 354.845C1168.25 354.586 1176.3 352.194 1183.01 350.974C1188.47 349.981 1194.54 348.813 1199.56 346.435C1205.86 343.45 1215.55 341.775 1219.99 336.222C1239.44 311.908 1238.01 278.965 1238.01 249.115C1238.01 228.74 1243.79 181.832 1212.25 181.832C1195.08 181.832 1177.38 174.412 1160.51 178.16C1153.58 179.701 1147.54 182.658 1141.29 185.436C1123.79 193.213 1125.07 215.582 1125.07 231.693C1125.07 245.024 1123.25 259.944 1125.14 273.144C1125.87 278.291 1138.14 283.245 1141.89 278.551C1145.75 273.726 1145.5 264.892 1145.5 258.727C1145.5 253.42 1146.7 248.384 1146.7 243.107C1146.7 238.883 1146.55 231.327 1148.17 227.488C1151.09 220.55 1149.55 215.349 1155.11 209.466C1162.71 201.414 1173.95 194.596 1183.94 189.307C1188.25 187.029 1190.5 181.439 1193.29 177.96C1198.66 171.245 1201.43 158.492 1201.43 149.792C1201.43 144.617 1200.47 138.8 1194.49 138.578C1191.48 138.467 1190.07 140.833 1187.55 140.981C1182.11 141.301 1174.6 145.732 1173.06 151.127C1171.01 158.314 1175.68 160.73 1182.74 157.201C1184.81 156.166 1188.95 153.443 1189.95 151.194C1190.39 150.205 1193.47 145.137 1194.16 144.586C1195.52 143.497 1195.42 136.271 1195.96 134.506C1196.72 132.023 1198.36 128.342 1198.36 125.963C1198.36 117.488 1203.95 108.137 1206.17 100.131C1209.11 89.554 1212.79 77.0404 1210.31 65.8882C1208.8 59.1049 1204.28 43.9416 1198.29 39.4556C1193.94 36.1878 1192.45 31.7881 1187.61 28.6422C1183.11 25.7122 1179.91 22.5875 1174.93 20.2318C1160.53 13.4112 1146.45 8.61824 1131.35 3.74478C1121.19 0.469605 1107.99 2.81029 1097.17 2.81029C1091.3 2.81029 1083.73 1.94898 1078.21 4.54577C1070.9 7.98635 1064.18 11.6755 1057.52 16.0266C1051.03 20.2731 1041.66 24.6907 1037.63 31.6459C1031.98 41.4081 1021.32 50.5473 1018.14 61.6831C1015.3 71.6298 1009.73 79.6916 1009.73 90.5854C1009.73 99.0275 1011.74 103.797 1014.53 111.478C1020.64 128.272 1049.35 130.575 1048.18 151.794C1047.75 159.468 1040.63 157.802 1034.96 157.802C1028.17 157.802 1026.52 156.539 1023.88 150.593C1021.78 145.862 1026.66 135.602 1031.35 132.838C1036.52 129.798 1039.86 124.15 1044.57 120.823C1050.26 116.805 1055.18 105.688 1058.99 99.8636C1063.49 92.9786 1068.04 88.9549 1075.54 86.6472C1097.11 80.0122 1122.31 90.3389 1141.36 99.8636C1155.08 106.725 1167.61 118.043 1182.47 122.225C1203.49 128.135 1232.12 126.81 1242.88 150.126C1249.24 163.907 1258.23 176.61 1265.04 190.242C1276.93 214.008 1295.04 236.607 1299.55 263.266C1302.18 278.787 1305.67 294.697 1306.49 310.39C1306.91 318.245 1310.1 325.353 1310.1 333.219C1310.1 337.832 1301.21 344.388 1296.88 345.501C1287.53 347.906 1278.1 348.266 1268.71 349.973C1265.23 350.607 1260.01 351.241 1256.57 351.241C1252.3 351.241 1249.43 354.929 1245.75 355.98C1241.32 357.247 1229.6 360.777 1229.6 366.259C1229.6 372.425 1234.46 376.452 1236.81 381.745C1240.62 390.323 1251.62 394.729 1258.44 400.569C1261.21 402.95 1270.78 414.728 1267.85 419.125C1265.08 423.271 1255.33 422.129 1251.03 422.129C1242.8 422.129 1234.62 419.726 1226.6 419.726C1221.08 419.726 1213.89 412.962 1209.84 409.646C1203.96 404.831 1194.4 408.004 1189.68 412.25C1187.06 414.613 1185.68 417.618 1184.21 420.927C1183.31 422.956 1183.68 427.567 1182.47 429.07C1178.81 433.651 1179.03 439.582 1180.61 444.69C1185.93 461.999 1212.42 458.173 1225.33 458.173C1251.14 458.173 1276.95 458.173 1302.76 458.173C1334.47 458.173 1312.5 402.46 1312.5 388.42C1312.5 382.352 1306.09 371.647 1309.57 366.193C1317.94 353.036 1442.13 359.203 1455 354.912" stroke="#9E9E9E" stroke-width="3" stroke-linecap="round"/>
</svg>
