<svg width="36" height="34" viewBox="0 0 36 34" fill="none" xmlns="http://www.w3.org/2000/svg">
<g clip-path="url(#clip0_214_9288)">
<path d="M18 14.5651H34.0482C34.2253 15.5538 34.3138 16.4983 34.3138 17.3984C34.3138 20.6007 33.6424 23.4599 32.2995 25.9759C30.9566 28.492 29.0419 30.4583 26.5553 31.875C24.0688 33.2917 21.217 34 18 34C15.6832 34 13.477 33.5536 11.3815 32.6608C9.28602 31.768 7.4783 30.5616 5.95833 29.0417C4.43837 27.5217 3.23199 25.714 2.33919 23.6185C1.4464 21.523 1 19.3168 1 17C1 14.6832 1.4464 12.477 2.33919 10.3815C3.23199 8.28602 4.43837 6.4783 5.95833 4.95833C7.4783 3.43837 9.28602 2.23199 11.3815 1.33919C13.477 0.446398 15.6832 0 18 0C22.4271 0 26.227 1.48307 29.3997 4.44922L24.7734 8.89844C22.9583 7.14236 20.7005 6.26432 18 6.26432C16.0964 6.26432 14.3366 6.74392 12.7207 7.70312C11.1048 8.66233 9.82465 9.96463 8.88021 11.61C7.93576 13.2554 7.46354 15.0521 7.46354 17C7.46354 18.9479 7.93576 20.7446 8.88021 22.39C9.82465 24.0354 11.1048 25.3377 12.7207 26.2969C14.3366 27.2561 16.0964 27.7357 18 27.7357C19.2839 27.7357 20.4644 27.5586 21.5417 27.2044C22.6189 26.8503 23.5043 26.4076 24.1979 25.8763C24.8915 25.3451 25.4965 24.74 26.013 24.0612C26.5295 23.3824 26.9095 22.7405 27.153 22.1354C27.3965 21.5304 27.5625 20.9549 27.651 20.4089H18V14.5651Z" fill="black"/>
</g>
<defs>
<clipPath id="clip0_214_9288">
<rect width="34" height="34" fill="white" transform="translate(1)"/>
</clipPath>
</defs>
</svg>
