<svg width="38" height="29" viewBox="0 0 38 29" fill="none" xmlns="http://www.w3.org/2000/svg">
<path d="M9.89803 2.00763C7.39705 2.57469 3.01257 6.19582 1.58841 8.40595C1.13311 9.11252 2.56241 9.79591 3.01052 10.0194C6.12879 11.5749 9.6424 10.6304 12.4355 8.87887C15.4671 6.97782 18.295 4.68471 21.2192 2.61964C21.4061 2.48768 24.6095 -0.145981 23.3663 1.59035C19.3786 7.16001 14.4418 12.0326 10.4557 17.6418C9.94536 18.36 4.02648 26.4945 5.88264 27.9347C6.52867 28.436 10.211 25.8924 10.6509 25.6536C16.9803 22.2178 23.2782 18.6985 29.4731 15.0268C31.5669 13.7858 38.0092 8.00544 33.6279 12.9404C32.1519 14.603 27.3569 19.6261 28.2461 22.2875C28.604 23.3586 35.2594 19.1508 36.5 18.532" stroke="#535353" stroke-width="2" stroke-linecap="round"/>
</svg>
