<svg width="48" height="48" viewBox="0 0 48 48" fill="none" xmlns="http://www.w3.org/2000/svg">
<path fill-rule="evenodd" clip-rule="evenodd" d="M18.853 9.11607C11.323 13.9521 7.13999 19.5801 6.30299 26.0031C4.99999 36.0001 13.94 40.8931 18.47 36.4971C23 32.1001 20.285 26.5201 17.005 24.9941C13.725 23.4691 11.719 24.0001 12.069 21.9611C12.419 19.9231 17.085 14.2711 21.185 11.6391C21.3303 11.5155 21.423 11.3412 21.4442 11.1517C21.4653 10.9621 21.4134 10.7716 21.299 10.6191L20.285 9.30007C19.845 8.72807 19.423 8.75007 18.853 9.11507M38.679 9.11607C31.149 13.9521 26.965 19.5811 26.129 26.0031C24.826 36.0001 33.766 40.8931 38.296 36.4971C42.826 32.1001 40.111 26.5201 36.83 24.9941C33.55 23.4691 31.544 24.0001 31.894 21.9611C32.244 19.9231 36.911 14.2711 41.011 11.6391C41.1561 11.5154 41.2486 11.341 41.2696 11.1515C41.2906 10.9619 41.2385 10.7715 41.124 10.6191L40.11 9.30007C39.67 8.72807 39.248 8.75007 38.679 9.11507" fill="black"/>
</svg>
