<svg width="48" height="48" viewBox="0 0 48 48" fill="none" xmlns="http://www.w3.org/2000/svg">
<path fill-rule="evenodd" clip-rule="evenodd" d="M29.1469 38.8839C36.6769 34.0479 40.8599 28.4199 41.6969 21.9969C42.9999 11.9999 34.0599 7.10693 29.5299 11.5029C24.9999 15.8999 27.7149 21.4799 30.9949 23.0059C34.2749 24.5309 36.2809 23.9999 35.9309 26.0389C35.5809 28.0769 30.9149 33.7289 26.8149 36.3609C26.6697 36.4845 26.577 36.6588 26.5558 36.8483C26.5346 37.0379 26.5865 37.2284 26.7009 37.3809L27.7149 38.6999C28.1549 39.2719 28.5769 39.2499 29.1469 38.8849M9.32095 38.8839C16.8509 34.0479 21.0349 28.4189 21.8709 21.9969C23.1739 11.9999 14.2339 7.10693 9.70395 11.5029C5.17395 15.8999 7.88895 21.4799 11.1699 23.0059C14.4499 24.5309 16.4559 23.9999 16.1059 26.0389C15.7559 28.0769 11.0889 33.7289 6.98895 36.3609C6.84381 36.4846 6.75131 36.659 6.73031 36.8485C6.70932 37.0381 6.7614 37.2285 6.87595 37.3809L7.88995 38.6999C8.32995 39.2719 8.75195 39.2499 9.32095 38.8849" fill="black"/>
</svg>
