<svg width="482" height="383" viewBox="0 0 482 383" fill="none" xmlns="http://www.w3.org/2000/svg">
<path d="M190.023 76.9102L204.672 95.9531C174.073 111.904 154.216 125.738 145.102 137.457C135.987 148.85 131.43 161.546 131.43 175.543C131.43 186.936 133.871 194.749 138.754 198.98C143.637 202.887 150.473 205.165 159.262 205.816C186.931 208.746 200.928 220.953 201.254 242.438C201.254 254.482 197.022 264.573 188.559 272.711C180.421 280.849 169.027 284.918 154.379 284.918C136.801 284.267 121.99 277.105 109.945 263.434C97.901 249.436 91.7161 228.44 91.3906 200.445C91.3906 170.497 100.831 144.944 119.711 123.785C138.591 102.626 162.029 87.0013 190.023 76.9102ZM336.508 76.9102L351.156 95.9531C320.557 111.904 300.701 125.738 291.586 137.457C282.471 148.85 277.914 161.546 277.914 175.543C277.914 186.936 280.355 194.749 285.238 198.98C290.121 202.887 296.957 205.165 305.746 205.816C333.415 208.746 347.413 220.953 347.738 242.438C347.738 254.482 343.507 264.573 335.043 272.711C326.905 280.849 315.512 284.918 300.863 284.918C283.285 284.267 268.474 277.105 256.43 263.434C244.385 249.436 238.201 228.44 237.875 200.445C237.875 170.497 247.315 144.944 266.195 123.785C285.076 102.626 308.513 87.0013 336.508 76.9102Z" fill="#9E9E9E"/>
</svg>
