<svg width="15" height="18" viewBox="0 0 15 18" fill="none" xmlns="http://www.w3.org/2000/svg">
<g clip-path="url(#clip0_253_756)">
<rect width="15" height="17" transform="translate(0 0.5)" fill="white"/>
<path d="M14.4713 10.7C14.541 10.6999 14.61 10.7154 14.6744 10.7457C14.7388 10.776 14.7973 10.8204 14.8464 10.8765C14.8956 10.9325 14.9345 10.999 14.9608 11.0722C14.9872 11.1453 15.0005 11.2236 15 11.3027V14.0261C15.0005 14.1047 14.9873 14.1827 14.9612 14.2556C14.9351 14.3284 14.8965 14.3948 14.8478 14.4507C14.799 14.5067 14.741 14.5512 14.677 14.5818C14.6131 14.6123 14.5444 14.6283 14.475 14.6287C14.4056 14.6283 14.337 14.6123 14.273 14.5818C14.209 14.5512 14.151 14.5067 14.1023 14.4507C14.0535 14.3948 14.015 14.3284 13.9888 14.2556C13.9627 14.1827 13.9495 14.1047 13.95 14.0261V13.0698C12.5843 15.6674 10.0493 17.5 7.31776 17.5C4.01026 17.5 1.23826 15.1872 0.0360133 11.6223C-0.0144659 11.4737 -0.0112857 11.3086 0.0448653 11.1627C0.101016 11.0169 0.205617 10.9019 0.336013 10.8428C0.606013 10.723 0.910513 10.8768 1.01551 11.187C2.06551 14.2998 4.45651 16.2956 7.31776 16.2956C9.84601 16.2956 12.2078 14.4409 13.308 11.9146L12.2048 11.9232C12.1354 11.9233 12.0666 11.9079 12.0025 11.8778C11.9383 11.8478 11.88 11.8038 11.8309 11.7482C11.7818 11.6926 11.7429 11.6266 11.7163 11.5539C11.6897 11.4813 11.676 11.4034 11.676 11.3247C11.6742 11.166 11.7281 11.0129 11.8258 10.8991C11.9236 10.7853 12.0572 10.7201 12.1973 10.7179L14.4713 10.7ZM7.68376 0.5C10.9898 0.5 13.7625 2.81285 14.9648 6.37775C15.0152 6.52628 15.0121 6.69136 14.9559 6.83725C14.8998 6.98314 14.7952 7.09809 14.6648 7.1572C14.6002 7.18571 14.5314 7.19942 14.4621 7.19751C14.3929 7.19561 14.3247 7.17814 14.2615 7.14611C14.1983 7.11408 14.1413 7.06813 14.0939 7.01094C14.0465 6.95375 14.0095 6.88645 13.9853 6.81295C12.9353 3.70025 10.5443 1.70445 7.68301 1.70445C5.15476 1.70445 2.79301 3.55915 1.69276 6.08535L2.79601 6.07685C2.86541 6.07674 2.93415 6.09213 2.9983 6.12216C3.06245 6.15218 3.12074 6.19624 3.16985 6.25182C3.21896 6.30739 3.25792 6.3734 3.2845 6.44606C3.31108 6.51871 3.32476 6.5966 3.32476 6.67525C3.32657 6.83404 3.27268 6.98715 3.17495 7.10094C3.07721 7.21474 2.94362 7.27991 2.80351 7.28215L0.528763 7.3C0.459046 7.30011 0.389998 7.28458 0.325606 7.25429C0.261213 7.224 0.202751 7.17956 0.153593 7.12353C0.104435 7.06751 0.0655538 7.001 0.0391942 6.92785C0.0128346 6.8547 -0.000481906 6.77636 1.3322e-05 6.69735V3.97395C1.3322e-05 3.64075 0.234763 3.3713 0.525013 3.3713C0.814513 3.3713 1.05001 3.64075 1.05001 3.97395V4.9302C2.41576 2.3326 4.95076 0.5 7.68226 0.5" fill="#757575"/>
</g>
<defs>
<clipPath id="clip0_253_756">
<rect width="15" height="17" fill="white" transform="translate(0 0.5)"/>
</clipPath>
</defs>
</svg>
