<svg width="36" height="36" viewBox="0 0 36 36" fill="none" xmlns="http://www.w3.org/2000/svg">
<path d="M27 33C25.75 33 24.6875 32.5625 23.8125 31.6875C22.9375 30.8125 22.5 29.75 22.5 28.5C22.5 28.325 22.5125 28.1435 22.5375 27.9555C22.5625 27.7675 22.6 27.599 22.65 27.45L12.075 21.3C11.65 21.675 11.175 21.969 10.65 22.182C10.125 22.395 9.575 22.501 9 22.5C7.75 22.5 6.6875 22.0625 5.8125 21.1875C4.9375 20.3125 4.5 19.25 4.5 18C4.5 16.75 4.9375 15.6875 5.8125 14.8125C6.6875 13.9375 7.75 13.5 9 13.5C9.575 13.5 10.125 13.6065 10.65 13.8195C11.175 14.0325 11.65 14.326 12.075 14.7L22.65 8.55C22.6 8.4 22.5625 8.2315 22.5375 8.0445C22.5125 7.8575 22.5 7.676 22.5 7.5C22.5 6.25 22.9375 5.1875 23.8125 4.3125C24.6875 3.4375 25.75 3 27 3C28.25 3 29.3125 3.4375 30.1875 4.3125C31.0625 5.1875 31.5 6.25 31.5 7.5C31.5 8.75 31.0625 9.8125 30.1875 10.6875C29.3125 11.5625 28.25 12 27 12C26.425 12 25.875 11.894 25.35 11.682C24.825 11.47 24.35 11.176 23.925 10.8L13.35 16.95C13.4 17.1 13.4375 17.269 13.4625 17.457C13.4875 17.645 13.5 17.826 13.5 18C13.5 18.175 13.4875 18.3565 13.4625 18.5445C13.4375 18.7325 13.4 18.901 13.35 19.05L23.925 25.2C24.35 24.825 24.825 24.5315 25.35 24.3195C25.875 24.1075 26.425 24.001 27 24C28.25 24 29.3125 24.4375 30.1875 25.3125C31.0625 26.1875 31.5 27.25 31.5 28.5C31.5 29.75 31.0625 30.8125 30.1875 31.6875C29.3125 32.5625 28.25 33 27 33Z" fill="black"/>
</svg>
