<svg width="36" height="36" viewBox="0 0 36 36" fill="none" xmlns="http://www.w3.org/2000/svg">
<path d="M14.6252 31.2749C17.2952 30.2249 16.7102 27.3299 15.3602 25.4999C14.0252 23.6249 12.1802 22.3349 10.3202 21.0899C8.99312 20.2535 7.80818 19.2103 6.81024 17.9999C6.39024 17.5049 5.53524 16.5899 6.40524 16.4099C7.29024 16.2299 8.82024 17.0999 9.60024 17.4299C10.9652 17.9999 12.3152 18.6599 13.5752 19.4399L15.0902 16.8899C12.7502 15.3449 9.75024 13.9799 6.96024 13.5749C5.37024 13.3349 3.69024 13.6649 3.15024 15.3899C2.67024 16.8749 3.43524 18.3749 4.30524 19.5449C6.36024 22.2899 9.55524 23.6099 11.9402 25.9799C12.4502 26.4749 13.0652 27.0599 13.3652 27.7499C13.6802 28.4099 13.6052 28.4549 12.9002 28.4549C11.0402 28.4549 8.71524 26.9999 7.20024 26.0399L5.68524 28.5899C7.98024 29.9999 11.8202 32.2049 14.6252 31.2749ZM31.2602 7.87493C31.5902 7.54493 31.5902 7.00493 31.2602 6.68993L29.3102 4.73993C29.1531 4.58851 28.9434 4.50391 28.7252 4.50391C28.507 4.50391 28.2973 4.58851 28.1402 4.73993L26.6102 6.26993L29.7302 9.38993M16.5002 16.3799V19.4999H19.6202L28.8452 10.2749L25.7252 7.15493L16.5002 16.3799Z" fill="white"/>
</svg>
