<svg width="36" height="36" viewBox="0 0 36 36" fill="none" xmlns="http://www.w3.org/2000/svg">
<path d="M22.4581 5.28425C18.9043 5.31871 15.1182 6.7521 11.9046 10.4061C11.1852 11.0846 10.5068 11.7835 9.85238 12.4672C8.40985 13.9742 7.0614 15.4116 5.61816 16.4376C4.31851 17.3616 2.96527 17.9575 1.3291 18.0372V24.3566C5.12105 22.0508 5.54321 19.5872 9.45688 14.7722C9.90547 14.3134 10.3517 13.8447 10.8016 13.3747C11.5019 12.6429 12.209 11.912 12.9506 11.2191C16.2146 8.62951 19.4209 9.25529 20.4893 11.3949C20.8128 7.93061 24.5645 9.24587 25.1871 12.7221C25.673 10.3528 26.6164 9.60341 27.5799 10.4984C25.6015 13.9849 25.7088 18.294 26.9888 22.0955C28.4309 26.3786 31.3301 30.1203 34.7474 31.4998V30.054C32.0516 28.7044 29.4977 25.4338 28.2324 21.6759C27.1119 18.3475 26.9825 14.71 28.4258 11.7157C29.0229 12.9054 29.5748 14.7677 29.9684 17.3077C31.2335 11.3602 33.8189 12.2126 33.9498 16.5629C36.9731 11.9021 30.2797 5.20874 22.4581 5.28425ZM19.951 12.0188C13.6563 12.7749 4.65158 25.2876 3.06723 34.8024H9.48324C9.55496 25.3838 14.4834 14.9711 19.951 12.0188ZM22.2296 12.9814C16.8324 16.4306 14.1736 27.6578 14.5084 34.8024H20.0235C17.1257 29.1253 18.3918 17.0368 22.2296 12.9812L22.2296 12.9814ZM23.7676 14.8248C21.3288 20.6066 21.9603 28.2599 25.5366 34.8024H31.0209C25.705 31.0214 22.5771 21.411 23.7677 14.8247L23.7676 14.8248Z" fill="white"/>
</svg>
