<svg width="15" height="18" viewBox="0 0 15 18" fill="none" xmlns="http://www.w3.org/2000/svg">
<rect width="15" height="17" transform="translate(0 0.5)" fill="white"/>
<path d="M11.3875 15.1981H3.61253C3.39578 15.1881 3.18291 15.1297 2.98609 15.0264C2.78927 14.923 2.61237 14.7767 2.4655 14.5958C2.31863 14.4148 2.20468 14.2029 2.13017 13.972C2.05566 13.7411 2.02206 13.4958 2.03128 13.2502V11.1252C2.03128 10.9843 2.08066 10.8492 2.16857 10.7495C2.25648 10.6499 2.37571 10.5939 2.50003 10.5939C2.62435 10.5939 2.74357 10.6499 2.83148 10.7495C2.91939 10.8492 2.96878 10.9843 2.96878 11.1252V13.2502C2.95264 13.4605 3.00855 13.6698 3.12492 13.8347C3.24129 13.9995 3.40918 14.1073 3.59378 14.1356H11.3875C11.5721 14.1073 11.74 13.9995 11.8564 13.8347C11.9727 13.6698 12.0287 13.4605 12.0125 13.2502V11.1252C12.0125 10.9843 12.0619 10.8492 12.1498 10.7495C12.2377 10.6499 12.357 10.5939 12.4813 10.5939C12.6056 10.5939 12.7248 10.6499 12.8127 10.7495C12.9006 10.8492 12.95 10.9843 12.95 11.1252V13.2502C12.9687 13.7427 12.8151 14.2237 12.5225 14.5885C12.2298 14.9533 11.8219 15.1724 11.3875 15.1981ZM10 6.6981C9.93844 6.69843 9.87741 6.68482 9.82053 6.65806C9.76365 6.6313 9.71205 6.59193 9.66878 6.54227L7.50003 4.08435L5.33128 6.54227C5.24242 6.63611 5.12489 6.68719 5.00345 6.68477C4.88201 6.68234 4.76615 6.62658 4.68026 6.52925C4.59438 6.43191 4.54518 6.3006 4.54304 6.16297C4.5409 6.02534 4.58598 5.89214 4.66878 5.79143L7.16878 2.9581C7.25667 2.85861 7.37581 2.80273 7.50003 2.80273C7.62425 2.80273 7.74338 2.85861 7.83128 2.9581L10.3313 5.79143C10.4191 5.89104 10.4684 6.02607 10.4684 6.16685C10.4684 6.30763 10.4191 6.44266 10.3313 6.54227C10.288 6.59193 10.2364 6.6313 10.1795 6.65806C10.1226 6.68482 10.0616 6.69843 10 6.6981Z" fill="#757575"/>
<path d="M7.5 11.6564C7.37618 11.6546 7.25789 11.598 7.17033 11.4988C7.08277 11.3996 7.03287 11.2655 7.03125 11.1252V3.3335C7.03125 3.1926 7.08064 3.05747 7.16854 2.95785C7.25645 2.85822 7.37568 2.80225 7.5 2.80225C7.62432 2.80225 7.74355 2.85822 7.83146 2.95785C7.91936 3.05747 7.96875 3.1926 7.96875 3.3335V11.1252C7.96713 11.2655 7.91723 11.3996 7.82967 11.4988C7.74211 11.598 7.62382 11.6546 7.5 11.6564Z" fill="#757575"/>
</svg>
