<svg width="37" height="37" viewBox="0 0 37 37" fill="none" xmlns="http://www.w3.org/2000/svg">
<path d="M6.66663 30.8329V26.7085H8.74996V30.8335V31.3335H9.24996H27.75H28.25V30.8335V26.7085H30.3333V30.8335C30.3333 31.5479 30.0849 32.1473 29.5745 32.6586C29.0645 33.1695 28.4657 33.4177 27.7506 33.4168H27.75H9.24996C8.53558 33.4168 7.93687 33.1685 7.42668 32.6583C6.91647 32.1481 6.66749 31.5487 6.66663 30.8329ZM30.3333 12.5406V16.4585H28.25V13.8752V13.3752H27.75H20.5416V6.16683V5.66683H20.0416H9.24996H8.74996V6.16683V16.4585H6.66663V6.16683C6.66663 5.45272 6.91525 4.85411 7.42638 4.34385C7.93792 3.83318 8.537 3.58443 9.25028 3.5835H21.3762L30.3333 12.5406ZM2.04163 22.6252V20.5418H34.9583V22.6252H2.04163Z" fill="black" stroke="black"/>
</svg>
