<svg width="36" height="36" viewBox="0 0 36 36" fill="none" xmlns="http://www.w3.org/2000/svg">
<path d="M9 8.5H8.5V9V15V15.5H9H22.5H23V15V9V8.5H22.5H9ZM34.5306 24.4025L34.5305 24.4024L34.5214 24.4114L33.6 25.3329L31.6521 23.385L32.5736 22.4636C32.6783 22.3588 32.8267 22.3588 32.9314 22.4636L34.5214 24.0536C34.6313 24.1635 34.618 24.3195 34.5306 24.4025ZM25.2929 5L31 10.7071V18.3929L18.3929 31H7.5C6.83696 31 6.20107 30.7366 5.73223 30.2678C5.26339 29.7989 5 29.163 5 28.5V7.5C5 6.83696 5.26339 6.20107 5.73223 5.73223C6.20107 5.26339 6.83696 5 7.5 5H25.2929ZM18 27.5C20.7661 27.5 23 25.2661 23 22.5C23 19.7339 20.7661 17.5 18 17.5C15.2339 17.5 13 19.7339 13 22.5C13 25.2661 15.2339 27.5 18 27.5ZM23 32.0524L29.9846 25.0818L31.9325 27.0296L24.9482 34H23V32.0524Z" fill="black" stroke="black"/>
</svg>
