<svg width="871" height="616" viewBox="0 0 871 616" fill="none" xmlns="http://www.w3.org/2000/svg">
<path d="M17.7578 502.016C34.0215 502.016 51.6259 505.727 67.5527 502.283C77.3809 500.158 87.9448 500.815 97.9903 500.815C119.306 500.815 140.621 500.815 161.936 500.815C179.068 500.815 196.201 500.815 213.333 500.815C234.287 500.815 255.847 504.419 276.678 504.419C297.37 504.419 318.062 504.419 338.755 504.419C346.233 504.419 354.738 505.202 361.917 503.151C364.414 502.437 375.536 503.248 377.002 501.415C378.94 498.993 383.009 497.928 383.009 494.207C383.009 490.161 381.752 490.081 380.606 486.931C377.882 479.439 369.755 481.591 363.185 481.591C359.61 481.591 356.04 482.315 352.505 482.859C349.941 483.254 345.033 483.332 342.759 484.595C335.654 488.542 324.355 482.335 316.928 485.462C309.66 488.522 301.103 486.142 293.565 487.865C285.647 489.675 276.976 488.8 268.868 488.8C242.646 488.8 216.189 490.001 189.837 490.001C170.086 490.001 150.786 487.598 130.964 487.598C115.456 487.598 99.9483 487.598 84.4402 487.598C73.3331 487.598 62.9597 487.129 53.2016 482.792C46.418 479.778 67.4381 476.785 70.0224 476.785C81.4365 476.785 92.8506 476.785 104.265 476.785C112.675 476.785 121.086 476.785 129.496 476.785C137.891 476.785 145.718 479.001 153.926 479.188C172.91 479.619 192.922 483.703 212.532 481.524C217.171 481.009 233.335 479.386 231.555 471.378C229.314 461.291 217.35 459.657 209.461 457.027C199.338 453.653 185.468 456.36 174.618 456.36C168.144 456.36 161.669 456.36 155.194 456.36C147.636 456.36 134.504 458.885 127.627 455.759C123.582 453.921 118.594 456.399 114.544 454.558C109.289 452.169 102.217 454.32 96.5886 452.155C94.1389 451.212 90.544 450.886 87.9779 450.419C84.3809 449.765 80.6492 447.949 77.2313 447.949C72.1602 447.949 65.8855 445.7 63.6812 440.741C54.9684 421.137 100.665 425.121 111.207 425.121C134.193 425.121 157.337 426.323 180.559 426.323C194.332 426.323 208.104 426.323 221.877 426.323C226.499 426.323 235.061 425.204 238.764 422.117C243.047 418.549 247.648 418.841 245.973 411.304C244.69 405.528 244.579 398.429 240.033 393.883C234.226 388.076 215.878 391.48 208.794 391.48C199.672 391.48 190.549 391.48 181.427 391.48C161.373 391.48 140.678 390.209 120.819 392.948C106.335 394.946 91.4193 395.084 76.7641 395.084C70.5306 395.084 60.7274 396.536 55.9383 391.747C52.6403 388.449 49.9353 381.789 50.1979 377.062C50.5793 370.197 60.7862 368.651 66.3512 368.651C95.9656 368.651 125.58 368.651 155.194 368.651C171.281 368.651 187.367 368.651 203.454 368.651C213.782 368.651 222.847 366.155 232.824 365.047C237.493 364.528 246.903 362.786 249.377 357.838C250.316 355.961 250.226 350.135 249.377 348.226C247.793 344.661 245.142 346.319 241.902 345.556C237.862 344.606 233.612 342.377 229.486 342.219C225.428 342.063 220.31 342.259 216.537 340.75C212.841 339.272 208.535 339.816 204.388 339.816C193.308 339.816 182.228 339.816 171.147 339.816C142.045 339.816 112.942 339.816 83.8395 339.816C79.5868 339.816 68.2202 341.663 68.2202 347.625C68.2202 356.532 85.9114 355.687 91.6491 356.57C104.448 358.539 119.073 356.637 132.032 356.637C149.355 356.637 166.239 354.89 183.229 354.167C189.833 353.886 198.182 353.973 204.655 352.431C209.072 351.38 213.769 349.183 217.738 352.431C223.832 357.417 221.184 363.47 220.809 369.853C220.088 382.099 191.543 385.155 183.296 385.472C175.549 385.77 167.582 386.674 159.533 386.674C149.447 386.674 139.675 384.638 129.763 384.271C121.201 383.954 112.566 384.271 103.998 384.271C96.6336 384.271 88.968 381.453 81.4365 383.336C73.2377 385.386 70.6231 390.951 70.6231 398.689C70.6231 407.081 81.1488 409.502 87.9779 409.502C124.913 409.502 162.602 411.905 199.783 411.905C206.835 411.905 212.72 411.955 218.94 415.509C221.639 417.052 228.085 418.448 229.152 422.184C234.92 442.37 216.639 443.143 200.918 443.143C185.994 443.143 170.828 443.928 155.929 443.143C150.642 442.865 141.438 441.91 136.705 439.806C128.644 436.223 114.58 438.338 106.267 438.338C88.6503 438.338 74.0725 441.595 60.4105 452.221C58.5484 453.67 56.2053 456.958 56.2053 459.364C56.2053 464.045 63.7553 464.4 67.5527 464.703C80.0796 465.706 93.7239 462.453 106 465.037C115.637 467.066 128.108 467.173 137.906 467.173C146.422 467.173 154.663 468.246 163.137 468.375C177.653 468.595 192.536 473.181 207.192 473.181C217.201 473.181 231.829 475.89 241.501 472.914C249.195 470.546 256.714 471.28 264.596 470.511C271.453 469.842 278.556 468.375 285.422 468.375C293.622 468.375 301.823 466.933 309.986 466.239C318.65 465.501 330.325 468.338 338.554 465.705C346.045 463.308 354.758 464.476 362.584 462.634C367.498 461.478 371.75 460.632 376.735 459.03C386.335 455.944 396.299 455.49 405.637 452.221C410.982 450.351 417.305 449.64 422.858 449.084C430.725 448.297 438.207 445.604 445.954 444.412C457.043 442.706 468.211 437.766 478.594 434.8C484.107 433.225 489.419 428.726 495.415 428.726C507.889 428.726 517.908 430.765 529.59 434.733C548.91 441.295 541.973 463.001 537.066 477.72C534.563 485.229 534.062 489.074 537.734 496.009C544.142 508.113 564.439 504.384 575.38 507.423C582.667 509.447 592.08 508.024 599.677 508.024C610.644 508.024 624.233 507.902 634.72 511.094C640.964 512.994 653.755 516.348 658.149 521.841C661.192 525.644 668.837 527.726 673.168 529.65C675.694 530.773 676.129 534.164 674.97 536.192C673.33 539.062 660.934 539.052 657.882 539.329C633.693 541.528 609.706 542.867 585.393 542.867C561.963 542.867 539.391 539.262 516.107 539.262C498.184 539.262 466.18 543.272 460.171 520.573C456.742 507.617 453.897 493.857 453.897 480.39C453.897 448.839 453.897 417.289 453.897 385.739C453.897 379.582 452.695 372.342 452.695 365.581C452.695 359.902 454.068 352.216 451.761 347.025C450.415 343.996 453.339 332.654 454.831 329.67C457.785 323.763 460.056 317.916 463.242 312.182C465.962 307.285 472.85 304.666 477.526 302.036C484.914 297.88 492.051 293.753 498.352 288.152C500.948 285.844 503.754 286.331 505.294 282.411C506.752 278.7 507.354 274.805 508.898 271.331C511.414 265.671 507.779 261.668 515.173 258.382C517.218 257.473 522.625 257.021 524.784 256.913C530.615 256.622 536.171 254.51 542.006 254.51C556.802 254.51 571.598 254.51 586.394 254.51C589.582 254.51 600.893 252.626 602.881 255.111C606.221 259.286 615.607 259.726 618.5 264.79C619.725 266.933 623.21 269.812 625.108 271.331C627.751 273.445 628.813 277.86 629.914 280.943C632.076 286.995 631.429 293.112 633.519 298.965C637.602 310.397 635.321 325.923 635.321 338.014C635.321 344.55 632.918 350.518 632.918 357.237C632.918 363.34 632.684 369.496 632.918 375.593C633.285 385.138 641.924 389.429 646.668 396.019C651.594 402.859 656.839 409.159 662.688 415.242C669.044 421.853 674.372 430.292 678.842 438.338C681.65 443.393 682.897 448.718 685.516 453.957C691.054 465.031 690.589 477.962 690.589 490.268C690.589 498.889 691.824 503.757 683.38 507.757C674.353 512.033 663.21 510.427 653.41 510.427C646.796 510.427 636.377 496.878 634.12 490.669C631.684 483.972 624.016 479.174 619.702 473.781C612.041 464.206 588.463 461.986 588.463 446.748C588.463 427.54 611.18 441.402 620.903 441.942C626.528 442.254 629.52 433.962 625.709 429.927C621.507 425.478 612.871 423.037 607.019 420.983C596.06 417.135 584.533 414.987 573.511 411.838C567.298 410.063 568.122 401.091 574.713 401.091C582.515 401.091 591.153 402.957 598.676 404.629C600.971 405.139 604.862 405.897 607.086 405.897C610.403 405.897 611.998 408.76 614.362 409.435C617.287 410.271 626.213 412.535 628.112 414.909C629.852 417.084 634.159 415.602 635.254 417.245C635.268 417.265 634.755 415.769 634.387 415.242C633.897 414.543 635.321 412.304 635.321 411.304C635.321 404.885 630.778 401.664 626.243 397.954C621.085 393.734 615.933 389.375 610.891 385.005C609.848 384.101 603.014 381.076 603.014 379.999C603.014 377.222 607.786 376.206 609.489 375.26C612.158 373.777 613.399 371.419 614.629 368.651C617.578 362.016 617.525 352.334 618.767 345.156C620.657 334.239 619.702 322.575 619.702 311.514C619.702 307.204 619.489 305.476 617.032 302.036C614.565 298.582 612.664 288.676 607.687 288.152C603.27 287.687 598.995 286.008 594.471 285.749C584.688 285.19 573.143 282.42 563.566 279.808C553.482 277.058 539.999 274.777 531.326 282.211C525.461 287.238 528.052 294.701 519.378 296.629C510.104 298.69 512.77 313.822 512.77 321.193C512.77 329.534 511.568 337.515 511.568 345.823C511.568 358.459 511.88 370.885 512.77 383.336C513.093 387.859 516.102 391.661 516.374 396.286C516.5 398.421 517.975 402.558 519.044 404.696C520.55 407.709 522.046 412.672 525.318 414.308C531.791 417.544 540.746 416.235 546.678 420.048C551.4 423.083 560.014 423.394 565.501 425.121C573.382 427.602 582.88 426.521 590.332 429.927C594.043 431.624 598.779 432.33 602.881 432.33C611.34 432.33 621.349 434.438 629.581 435.935C645.984 438.917 661.381 435.364 677.774 434.733C684.51 434.474 692.555 432.082 699.267 430.862C704.729 429.869 710.8 428.701 715.821 426.323C722.123 423.337 731.803 421.663 736.246 416.11C755.697 391.796 754.268 358.852 754.268 329.002C754.268 308.627 760.048 261.719 728.503 261.719C711.338 261.719 693.64 254.3 676.772 258.048C669.838 259.589 663.799 262.546 657.549 265.324C640.049 273.101 641.328 295.469 641.328 311.581C641.328 324.911 639.509 339.832 641.395 353.032C642.13 358.179 654.395 363.132 658.149 358.439C662.01 353.613 661.754 344.779 661.754 338.614C661.754 333.308 662.955 328.271 662.955 322.995C662.955 318.771 662.807 311.215 664.424 307.376C667.345 300.438 665.809 295.237 671.366 289.353C678.97 281.302 690.211 274.484 700.201 269.195C704.505 266.917 706.763 261.327 709.546 257.848C714.918 251.133 717.69 238.38 717.69 229.68C717.69 224.504 716.73 218.687 710.748 218.466C707.736 218.354 706.324 220.721 703.806 220.869C698.37 221.189 690.863 225.62 689.321 231.015C687.268 238.202 691.942 240.618 699 237.089C701.069 236.054 705.209 233.33 706.209 231.081C706.648 230.093 709.724 225.025 710.414 224.473C711.774 223.385 711.673 216.159 712.216 214.394C712.98 211.911 714.619 208.23 714.619 205.85C714.619 197.376 720.205 188.025 722.429 180.018C725.367 169.442 729.045 156.928 726.567 145.776C725.06 138.993 720.534 123.829 714.552 119.343C710.195 116.075 708.712 111.676 703.872 108.53C699.365 105.6 696.163 102.475 691.19 100.12C676.791 93.2989 662.711 88.5059 647.603 83.6325C637.45 80.3573 624.251 82.698 613.427 82.698C607.562 82.698 599.989 81.8367 594.471 84.4335C587.159 87.874 580.433 91.5632 573.778 95.9143C567.284 100.161 557.914 104.578 553.887 111.534C548.235 121.296 537.578 130.435 534.396 141.571C531.554 151.517 525.986 159.579 525.986 170.473C525.986 178.915 527.999 183.684 530.792 191.366C536.899 208.16 565.612 210.462 564.433 231.682C564.007 239.355 556.889 237.69 551.217 237.69C544.43 237.69 542.779 236.427 540.137 230.481C538.034 225.75 542.914 215.49 547.613 212.725C552.78 209.686 556.116 204.038 560.829 200.711C566.522 196.692 571.438 185.576 575.247 179.751C579.749 172.866 584.301 168.843 591.801 166.535C613.365 159.9 638.566 170.227 657.615 179.751C671.338 186.612 683.865 197.931 698.733 202.112C719.748 208.023 748.38 206.698 759.141 230.013C765.501 243.795 774.486 256.498 781.302 270.13C793.185 293.896 811.299 316.495 815.811 343.153C818.438 358.675 821.927 374.585 822.753 390.278C823.166 398.133 826.357 405.241 826.357 413.106C826.357 417.719 817.465 424.276 813.141 425.388C803.787 427.794 794.359 428.154 784.973 429.86C781.486 430.494 776.267 431.129 772.824 431.129C768.557 431.129 765.689 434.817 762.011 435.868C757.578 437.134 745.858 440.665 745.858 446.147C745.858 452.313 750.714 456.339 753.067 461.633C756.879 470.21 767.88 474.617 774.693 480.456C777.471 482.837 787.036 494.616 784.105 499.013C781.341 503.159 771.587 502.016 767.284 502.016C759.057 502.016 750.881 499.613 742.854 499.613C737.343 499.613 730.152 492.85 726.1 489.534C720.215 484.719 710.659 487.892 705.942 492.137C703.316 494.501 701.939 497.506 700.468 500.815C699.566 502.844 699.935 507.455 698.733 508.958C695.068 513.539 695.292 519.47 696.864 524.577C702.19 541.886 728.676 538.061 741.586 538.061C767.395 538.061 793.205 538.061 819.015 538.061C850.73 538.061 828.76 482.348 828.76 468.308C828.76 462.239 822.352 451.535 825.823 446.08C834.196 432.923 848.328 441.427 861.2 437.136" stroke="black" stroke-width="3" stroke-linecap="round"/>
</svg>
